<svg width="24" height="25" viewBox="0 0 24 25" fill="none" xmlns="http://www.w3.org/2000/svg">
<path d="M22.56 12.3208C22.56 11.5363 22.49 10.782 22.36 10.0578H12V14.3424H17.92C17.66 15.7203 16.88 16.887 15.71 17.6716V20.4576H19.28C21.36 18.5265 22.56 15.6902 22.56 12.3208Z" fill="#4285F4"/>
<path d="M12 23.1329C14.97 23.1329 17.46 22.1473 19.28 20.4576L15.71 17.6716C14.73 18.3354 13.48 18.7377 12 18.7377C9.14 18.7377 6.71 16.7965 5.84 14.1815H2.18V17.0379C3.99 20.6487 7.7 23.1329 12 23.1329Z" fill="#34A853"/>
<path d="M5.84 14.1714C5.62 13.5076 5.49 12.8036 5.49 12.0694C5.49 11.3351 5.62 10.6311 5.84 9.96729V7.11087H2.18C1.43 8.59943 1 10.2791 1 12.0694C1 13.8597 1.43 15.5393 2.18 17.0279L5.03 14.795L5.84 14.1714Z" fill="#FBBC05"/>
<path d="M12 5.4111C13.62 5.4111 15.06 5.97434 16.21 7.06058L19.36 3.89237C17.45 2.10208 14.97 1.00578 12 1.00578C7.7 1.00578 3.99 3.49006 2.18 7.11087L5.84 9.96728C6.71 7.35226 9.14 5.4111 12 5.4111Z" fill="#EA4335"/>
</svg>
