<svg width="24" height="24" viewBox="0 0 24 24" fill="none" xmlns="http://www.w3.org/2000/svg">
<path d="M17 2H7C5.67392 2 4.40215 2.52678 3.46447 3.46447C2.52678 4.40215 2 5.67392 2 7V17C2 18.3261 2.52678 19.5979 3.46447 20.5355C4.40215 21.4732 5.67392 22 7 22H17C18.3261 22 19.5979 21.4732 20.5355 20.5355C21.4732 19.5979 22 18.3261 22 17V7C22 5.67392 21.4732 4.40215 20.5355 3.46447C19.5979 2.52678 18.3261 2 17 2ZM20 17C20 17.7956 19.6839 18.5587 19.1213 19.1213C18.5587 19.6839 17.7956 20 17 20H7C6.20435 20 5.44129 19.6839 4.87868 19.1213C4.31607 18.5587 4 17.7956 4 17V7C4 6.20435 4.31607 5.44129 4.87868 4.87868C5.44129 4.31607 6.20435 4 7 4H17C17.7956 4 18.5587 4.31607 19.1213 4.87868C19.6839 5.44129 20 6.20435 20 7V17Z" fill="#F9F9F9"/>
<path d="M15.6007 11.003C15.6007 10.8438 15.5374 10.6912 15.4249 10.5787C15.3123 10.4661 15.1597 10.4029 15.0005 10.4029H8.04528L9.42553 9.02864C9.53854 8.91564 9.60202 8.76237 9.60202 8.60256C9.60202 8.44275 9.53854 8.28949 9.42553 8.17649C9.31253 8.06348 9.15927 8 8.99946 8C8.83965 8 8.68638 8.06348 8.57338 8.17649L6.17294 10.5769C6.08967 10.6613 6.03327 10.7685 6.01084 10.8849C5.98841 11.0013 6.00096 11.1218 6.04692 11.231C6.09194 11.3406 6.16839 11.4344 6.26664 11.5007C6.36489 11.5669 6.48054 11.6025 6.59902 11.6031H15.0005C15.1597 11.6031 15.3123 11.5399 15.4249 11.4273C15.5374 11.3148 15.6007 11.1622 15.6007 11.003ZM17.9531 13.1754C17.9081 13.0658 17.8316 12.972 17.7334 12.9058C17.6351 12.8396 17.5195 12.8039 17.401 12.8033H8.99946C8.8403 12.8033 8.68766 12.8666 8.57512 12.9791C8.46257 13.0916 8.39935 13.2443 8.39935 13.4034C8.39935 13.5626 8.46257 13.7152 8.57512 13.8278C8.68766 13.9403 8.8403 14.0035 8.99946 14.0035H15.9547L14.5745 15.3778C14.5182 15.4336 14.4736 15.5 14.4431 15.5731C14.4126 15.6462 14.397 15.7246 14.397 15.8039C14.397 15.8831 14.4126 15.9615 14.4431 16.0347C14.4736 16.1078 14.5182 16.1742 14.5745 16.2299C14.6303 16.2862 14.6966 16.3308 14.7698 16.3613C14.8429 16.3918 14.9213 16.4075 15.0005 16.4075C15.0798 16.4075 15.1582 16.3918 15.2313 16.3613C15.3045 16.3308 15.3708 16.2862 15.4266 16.2299L17.8271 13.8295C17.9103 13.7451 17.9667 13.638 17.9892 13.5215C18.0116 13.4051 17.999 13.2847 17.9531 13.1754Z" fill="#F9F9F9"/>
</svg>
